<svg width="47" height="54" viewBox="0 0 47 54" fill="none" xmlns="http://www.w3.org/2000/svg">
<path d="M39.8704 41.5654L24.292 49.9447C23.6797 50.273 22.9274 50.166 22.4295 49.6792L11.7562 42.4653C11.1219 41.8457 11.1219 40.8241 11.7562 40.2009L23.263 32.1682M2.52865 42.9964L22.5106 53.7471C22.979 53.9979 23.5433 53.9979 24.0117 53.7471L43.9936 42.9964C45.0927 42.4063 45.1074 40.8352 44.0232 40.223L24.0412 28.919C23.558 28.6461 22.9643 28.6461 22.4811 28.919L2.49915 40.223C1.41486 40.8389 1.42961 42.4063 2.52865 42.9964Z" fill="#2569ED"/>
<path d="M46.5288 13.9418V36.7599C46.5288 37.6967 45.5183 38.2831 44.7069 37.8147C37.7955 33.8242 26.5837 27.3554 23.8693 25.7879C23.4931 25.5703 23.0321 25.574 22.6559 25.7879C20.1001 27.2632 9.97636 33.1014 1.82203 37.811C1.01065 38.2794 0.00012207 37.693 0.00012207 36.7599V13.9418C0.00012207 13.5066 0.232468 13.1046 0.608652 12.8907L22.6559 0.163197C23.0321 -0.0543991 23.4968 -0.0543991 23.873 0.163197L45.9203 12.8907C46.2965 13.1083 46.5288 13.5103 46.5288 13.9418Z" fill="#2569ED"/>
</svg>
