<svg width="200" height="55" viewBox="0 0 200 55" fill="none" xmlns="http://www.w3.org/2000/svg">
<path d="M39.8704 41.5654L24.292 49.9447C23.6797 50.273 22.9274 50.166 22.4295 49.6792L11.7562 42.4653C11.1219 41.8457 11.1219 40.8241 11.7562 40.2009L23.263 32.1682M2.52865 42.9964L22.5106 53.7471C22.979 53.9979 23.5433 53.9979 24.0117 53.7471L43.9936 42.9964C45.0927 42.4063 45.1074 40.8352 44.0232 40.223L24.0412 28.919C23.558 28.6461 22.9643 28.6461 22.4811 28.919L2.49915 40.223C1.41486 40.8389 1.42961 42.4063 2.52865 42.9964Z" fill="#2569ED"/>
<path d="M46.5288 13.9418V36.7599C46.5288 37.6967 45.5183 38.2831 44.7069 37.8147C37.7955 33.8242 26.5837 27.3554 23.8693 25.7879C23.4931 25.5703 23.0321 25.574 22.6559 25.7879C20.1001 27.2632 9.97636 33.1014 1.82203 37.811C1.01065 38.2794 0.00012207 37.693 0.00012207 36.7599V13.9418C0.00012207 13.5066 0.232468 13.1046 0.608652 12.8907L22.6559 0.163197C23.0321 -0.0543991 23.4968 -0.0543991 23.873 0.163197L45.9203 12.8907C46.2965 13.1083 46.5288 13.5103 46.5288 13.9418Z" fill="#2569ED"/>
<path d="M73.9669 16.6747H56.9427V11.8323H83.0875L64.7024 39.9059H82.8994V44.7483H55.5781L73.9632 16.6747H73.9669Z" fill="black"/>
<path d="M86.8505 12.1606C86.8505 10.4198 88.3072 9.01099 90.048 9.01099C91.7888 9.01099 93.1976 10.4198 93.1976 12.1606C93.1976 13.9014 91.7888 15.3582 90.048 15.3582C88.3072 15.3582 86.8505 13.9014 86.8505 12.1606ZM87.5549 19.4962H92.5854V44.7484H87.5549V19.4962Z" fill="black"/>
<path d="M99.545 19.4962H104.387V23.4461C106.268 20.7649 109.23 19.0278 113.088 19.0278C120.095 19.0278 125.738 24.8587 125.738 32.1021C125.738 39.3454 120.095 45.2205 113.088 45.2205C109.374 45.2205 106.456 43.5277 104.576 41.0346V54.153H99.545V19.4962ZM120.611 32.0984C120.611 27.5842 116.99 23.9625 112.475 23.9625C107.961 23.9625 104.34 27.5842 104.34 32.0984C104.34 36.6126 107.961 40.2785 112.475 40.2785C116.99 40.2785 120.611 36.6568 120.611 32.0984Z" fill="black"/>
<path d="M129.261 36.5204H134.435C134.527 38.8254 136.268 40.7986 140.17 40.7986C144.072 40.7986 145.765 39.5741 145.765 37.6932C145.765 35.484 143.368 34.8718 139.134 34.2596C133.255 33.4593 129.777 31.2501 129.777 26.5958C129.777 21.9414 133.867 19.0242 139.886 19.0242C145.293 19.0242 149.807 21.9857 150.139 27.1121H144.965C144.824 25.139 143.32 23.4425 139.886 23.4425C136.453 23.4425 134.808 24.5231 134.808 26.2159C134.808 28.4251 137.017 29.0852 141.343 29.7417C146.469 30.542 150.795 32.0947 150.795 37.5936C150.795 42.1078 146.517 45.2132 140.262 45.2132C133.539 45.2132 129.541 41.6394 129.257 36.513L129.261 36.5204Z" fill="black"/>
<path d="M154.558 32.0984C154.558 24.855 160.201 19.0242 167.256 19.0242C171.066 19.0242 174.027 20.765 175.956 23.4425V19.4926H180.799V44.7448H175.956V40.7469C174.027 43.4761 171.066 45.2132 167.256 45.2132C160.204 45.2132 154.558 39.3823 154.558 32.0947V32.0984ZM175.956 32.0984C175.956 27.5842 172.382 23.9625 167.868 23.9625C163.354 23.9625 159.732 27.5842 159.732 32.0984C159.732 36.6126 163.354 40.2785 167.868 40.2785C172.382 40.2785 175.956 36.6568 175.956 32.0984Z" fill="black"/>
<path d="M187.759 19.4963H192.601V24.4346C193.826 20.9088 196.223 18.7919 199.656 19.0279V25.471C196.131 24.3904 192.789 26.1754 192.789 31.1617V44.7522H187.759V19.5V19.4963Z" fill="black"/>
</svg>
