<svg width="200" height="55" viewBox="0 0 200 55" fill="none" xmlns="http://www.w3.org/2000/svg">
<path d="M39.8703 41.5655L24.2919 49.9448C23.6797 50.273 22.9273 50.1661 22.4294 49.6793L11.7562 42.4654C11.1218 41.8458 11.1218 40.8242 11.7562 40.2009L23.2629 32.1683M2.52859 42.9965L22.5106 53.7472C22.9789 53.998 23.5432 53.998 24.0116 53.7472L43.9936 42.9965C45.0926 42.4064 45.1074 40.8353 44.0231 40.2231L24.0411 28.9191C23.558 28.6462 22.9642 28.6462 22.4811 28.9191L2.49909 40.2231C1.4148 40.839 1.42955 42.4064 2.52859 42.9965Z" fill="white"/>
<path d="M46.5288 13.9418V36.7599C46.5288 37.6967 45.5183 38.2831 44.7069 37.8147C37.7955 33.8242 26.5837 27.3554 23.8693 25.7879C23.4931 25.5703 23.0321 25.574 22.6559 25.7879C20.1001 27.2632 9.97636 33.1014 1.82203 37.811C1.01065 38.2794 0.00012207 37.693 0.00012207 36.7599V13.9418C0.00012207 13.5066 0.232468 13.1046 0.608652 12.8907L22.6559 0.163197C23.0321 -0.0543991 23.4968 -0.0543991 23.873 0.163197L45.9203 12.8907C46.2965 13.1083 46.5288 13.5103 46.5288 13.9418Z" fill="white"/>
<path d="M73.9669 16.6748H56.9427V11.8323H83.0875L64.7024 39.9059H82.8994V44.7484H55.5781L73.9632 16.6748H73.9669Z" fill="black"/>
<path d="M86.8505 12.1605C86.8505 10.4198 88.3072 9.01093 90.048 9.01093C91.7888 9.01093 93.1976 10.4198 93.1976 12.1605C93.1976 13.9013 91.7888 15.3581 90.048 15.3581C88.3072 15.3581 86.8505 13.9013 86.8505 12.1605ZM87.5549 19.4961H92.5854V44.7483H87.5549V19.4961Z" fill="black"/>
<path d="M99.545 19.4962H104.387V23.4461C106.268 20.7648 109.23 19.0278 113.088 19.0278C120.095 19.0278 125.738 24.8586 125.738 32.102C125.738 39.3454 120.095 45.2205 113.088 45.2205C109.374 45.2205 106.456 43.5276 104.576 41.0345V54.153H99.545V19.4962ZM120.611 32.0983C120.611 27.5841 116.99 23.9624 112.475 23.9624C107.961 23.9624 104.34 27.5841 104.34 32.0983C104.34 36.6125 107.961 40.2784 112.475 40.2784C116.99 40.2784 120.611 36.6568 120.611 32.0983Z" fill="black"/>
<path d="M129.261 36.5203H134.435C134.527 38.8253 136.268 40.7984 140.17 40.7984C144.072 40.7984 145.765 39.574 145.765 37.6931C145.765 35.4839 143.368 34.8717 139.134 34.2595C133.255 33.4592 129.777 31.25 129.777 26.5957C129.777 21.9413 133.867 19.024 139.886 19.024C145.293 19.024 149.807 21.9856 150.139 27.112H144.965C144.824 25.1389 143.32 23.4424 139.886 23.4424C136.453 23.4424 134.808 24.523 134.808 26.2158C134.808 28.4249 137.017 29.0851 141.343 29.7416C146.469 30.5419 150.795 32.0946 150.795 37.5935C150.795 42.1077 146.517 45.2131 140.262 45.2131C133.539 45.2131 129.541 41.6393 129.257 36.5129L129.261 36.5203Z" fill="black"/>
<path d="M154.558 32.0983C154.558 24.8549 160.201 19.024 167.256 19.024C171.066 19.024 174.027 20.7648 175.956 23.4424V19.4924H180.799V44.7447H175.956V40.7468C174.027 43.476 171.066 45.2131 167.256 45.2131C160.204 45.2131 154.558 39.3822 154.558 32.0946V32.0983ZM175.956 32.0983C175.956 27.5841 172.382 23.9624 167.868 23.9624C163.354 23.9624 159.732 27.5841 159.732 32.0983C159.732 36.6125 163.354 40.2784 167.868 40.2784C172.382 40.2784 175.956 36.6567 175.956 32.0983Z" fill="black"/>
<path d="M187.759 19.4961H192.601V24.4344C193.826 20.9086 196.223 18.7917 199.656 19.0277V25.4708C196.131 24.3902 192.789 26.1752 192.789 31.1615V44.752H187.759V19.4998V19.4961Z" fill="black"/>
</svg>
