<svg width="369" height="225" viewBox="0 0 369 225" fill="none" xmlns="http://www.w3.org/2000/svg">
<rect width="369" height="225" rx="52" fill="#1A1A1A"/>
<path d="M226.105 95.7156C226.601 95.6706 227.088 95.633 227.193 95.6255C227.295 95.618 227.512 95.6105 227.962 95.5992L227.981 96.9769C227.992 97.7389 228 104.229 228 111.403C228 119.826 227.985 124.732 227.962 125.254C227.94 125.697 227.887 126.541 227.846 127.131C227.805 127.72 227.73 128.613 227.677 129.12C227.629 129.627 227.535 130.438 227.475 130.922C227.411 131.406 227.302 132.191 227.227 132.667C227.156 133.144 227.021 133.944 226.927 134.451C226.833 134.957 226.683 135.723 226.589 136.158C226.495 136.594 226.312 137.386 226.18 137.923C226.049 138.46 225.824 139.312 225.678 139.818C225.535 140.325 225.321 141.035 225.205 141.395C225.092 141.755 224.886 142.375 224.751 142.765C224.612 143.155 224.357 143.85 224.181 144.304C224.008 144.758 223.708 145.494 223.516 145.937C223.325 146.38 223.021 147.056 222.841 147.438C222.661 147.821 222.323 148.497 222.091 148.94C221.858 149.383 221.505 150.036 221.303 150.385C221.1 150.734 220.785 151.267 220.598 151.568C220.414 151.868 220.091 152.363 219.885 152.675C219.678 152.983 219.341 153.474 219.134 153.764C218.928 154.053 218.56 154.541 218.324 154.848C218.084 155.156 217.705 155.629 217.48 155.899C217.255 156.17 216.876 156.609 216.636 156.879C216.395 157.149 215.821 157.746 215.356 158.212C214.891 158.677 214.294 159.255 214.024 159.492C213.754 159.732 213.308 160.119 213.03 160.351C212.752 160.584 212.152 161.053 211.698 161.395C211.244 161.736 210.542 162.232 210.141 162.502C209.74 162.769 209.106 163.167 208.734 163.388C208.363 163.61 207.957 163.846 207.834 163.917C207.71 163.985 207.346 164.214 207.027 164.424C206.708 164.638 206.262 164.916 206.033 165.044C205.804 165.175 205.29 165.445 204.888 165.648C204.487 165.847 203.845 166.147 203.463 166.312C203.08 166.474 202.446 166.733 202.056 166.883C201.666 167.033 200.919 167.296 200.405 167.468C199.891 167.641 199.02 167.908 198.473 168.065C197.925 168.223 196.972 168.478 196.353 168.628C195.734 168.782 194.83 168.992 194.346 169.094C193.862 169.195 192.999 169.368 192.432 169.473C191.866 169.578 190.909 169.736 190.312 169.83C189.712 169.92 188.752 170.055 188.174 170.126C187.596 170.197 186.692 170.299 186.166 170.351C185.641 170.404 184.898 170.475 184.516 170.505C184.133 170.535 183.383 170.584 182.846 170.618C182.31 170.648 181.424 170.689 180.876 170.712C180.329 170.73 179.057 170.749 178.044 170.749C177.031 170.749 175.793 170.73 175.286 170.712C174.78 170.693 174.048 170.659 173.654 170.637C173.26 170.614 172.51 170.562 171.984 170.52C171.459 170.479 170.63 170.404 170.146 170.351C169.662 170.299 168.934 170.216 168.533 170.164C168.131 170.115 167.422 170.014 166.957 169.942C166.492 169.871 165.689 169.732 165.175 169.638C164.661 169.544 163.88 169.39 163.449 169.3C163.017 169.206 162.248 169.03 161.742 168.902C161.235 168.779 160.41 168.561 159.903 168.414C159.397 168.272 158.545 168.009 158.009 167.833C157.472 167.656 156.662 167.371 156.208 167.202C155.754 167.029 155.127 166.785 154.819 166.658C154.508 166.53 154.013 166.316 153.713 166.181C153.413 166.046 152.85 165.779 152.456 165.588C152.062 165.393 151.48 165.092 151.161 164.92C150.842 164.747 150.302 164.439 149.961 164.236C149.619 164.034 149.004 163.647 148.591 163.373C148.179 163.099 147.53 162.645 147.147 162.356C146.764 162.071 146.261 161.676 146.029 161.485C145.8 161.297 145.609 161.132 145.609 161.121C145.609 161.11 145.774 160.896 145.976 160.64C146.179 160.389 146.659 159.777 147.042 159.282C147.421 158.786 148.355 157.562 149.117 156.56C149.875 155.558 152.062 152.652 153.972 150.1L154.187 149.811C156.01 147.376 157.624 145.218 158.14 144.511L158.226 144.589C158.271 144.634 158.429 144.747 158.571 144.841C158.714 144.938 159.112 145.152 159.453 145.321C159.794 145.49 160.35 145.746 160.691 145.892C161.033 146.035 161.607 146.267 161.967 146.406C162.327 146.545 163.149 146.834 163.786 147.048C164.424 147.262 165.396 147.562 165.944 147.72C166.492 147.878 167.377 148.114 167.914 148.246C168.45 148.381 169.245 148.561 169.677 148.655C170.108 148.749 170.844 148.891 171.309 148.974C171.774 149.056 172.51 149.173 172.941 149.237C173.373 149.3 174.033 149.383 174.404 149.424C174.776 149.465 175.425 149.529 175.849 149.567C176.46 149.619 177.027 149.634 178.625 149.634C180.284 149.634 180.745 149.623 181.289 149.567C181.649 149.529 182.182 149.465 182.471 149.424C182.76 149.383 183.266 149.3 183.596 149.237C183.927 149.176 184.474 149.056 184.816 148.974C185.157 148.887 185.705 148.737 186.035 148.64C186.365 148.538 186.898 148.362 187.217 148.242C187.536 148.125 188.054 147.919 188.361 147.784C188.673 147.652 189.153 147.427 189.431 147.288C189.708 147.149 190.166 146.905 190.444 146.744C190.721 146.586 191.168 146.312 191.438 146.136C191.708 145.959 192.143 145.652 192.413 145.453C192.684 145.25 193.085 144.931 193.314 144.736C193.543 144.541 193.925 144.188 194.173 143.947C194.417 143.711 194.781 143.332 194.98 143.103C195.182 142.874 195.486 142.514 195.659 142.296C195.828 142.078 196.143 141.639 196.353 141.32C196.567 141.001 196.863 140.52 197.013 140.25C197.16 139.98 197.385 139.544 197.508 139.274C197.628 139.004 197.801 138.602 197.891 138.373C197.977 138.144 198.12 137.75 198.203 137.491C198.285 137.232 198.416 136.725 198.488 136.365C198.563 136.005 198.664 135.419 198.713 135.07C198.765 134.721 198.833 134.188 198.863 133.887C198.897 133.587 198.945 133.013 198.979 132.611C199.009 132.21 199.05 131.575 199.073 131.204C199.092 130.832 199.129 129.642 199.156 128.557C199.189 127.014 199.189 125.952 199.152 123.658C199.125 122.048 199.095 119.766 199.084 118.591C199.069 117.206 199.077 116.226 199.107 115.813C199.129 115.464 199.171 115.047 199.201 114.893C199.231 114.74 199.317 114.424 199.392 114.199C199.467 113.97 199.624 113.55 199.737 113.261C199.85 112.972 200.078 112.446 200.24 112.097C200.405 111.748 200.679 111.196 200.851 110.877C201.024 110.558 201.309 110.059 201.482 109.77C201.654 109.481 201.973 108.981 202.187 108.662C202.401 108.343 202.765 107.825 202.994 107.517C203.226 107.206 203.605 106.725 203.834 106.448C204.067 106.17 204.446 105.731 204.682 105.472C204.915 105.213 205.425 104.691 205.815 104.308C206.202 103.925 206.791 103.385 207.117 103.107C207.443 102.829 207.957 102.409 208.261 102.176C208.561 101.947 209.034 101.598 209.308 101.406C209.582 101.219 210.055 100.903 210.359 100.708C210.663 100.513 211.173 100.205 211.492 100.021C211.811 99.8372 212.418 99.5144 212.842 99.3004C213.266 99.0865 213.855 98.8012 214.156 98.666C214.456 98.5309 214.962 98.3169 215.281 98.1893C215.6 98.0617 216.167 97.8477 216.538 97.7126C216.909 97.5812 217.577 97.3597 218.02 97.2284C218.463 97.0932 219.157 96.898 219.558 96.7967C219.96 96.6953 220.643 96.5339 221.078 96.4438C221.513 96.3537 222.218 96.2186 222.654 96.1435C223.089 96.0722 223.839 95.9633 224.323 95.8995C224.807 95.8395 225.61 95.7569 226.105 95.7156Z" fill="#32B44A"/>
<path d="M177.462 55.0775C177.886 55.0475 178.333 55.0137 178.456 55.0062C178.58 54.9987 179.518 54.9987 180.539 55.0025C181.867 55.01 182.598 55.0325 183.109 55.0738C183.503 55.1076 184.185 55.1789 184.628 55.2314C185.071 55.284 185.78 55.3853 186.204 55.4529C186.628 55.5242 187.236 55.6331 187.555 55.6969C187.874 55.7607 188.425 55.8808 188.774 55.9634C189.123 56.046 189.667 56.1811 189.975 56.2637C190.286 56.3463 190.766 56.4814 191.044 56.564C191.322 56.6466 191.881 56.8268 192.282 56.9619C192.684 57.0933 193.318 57.3223 193.689 57.4612C194.06 57.6038 194.567 57.8028 194.815 57.9041C195.062 58.0055 195.46 58.1744 195.696 58.2757C195.933 58.3808 196.432 58.6098 196.803 58.7862C197.175 58.9627 197.782 59.2667 198.154 59.4619C198.525 59.6571 199.118 59.9799 199.467 60.1826C199.816 60.3816 200.349 60.7007 200.649 60.8883C200.949 61.0723 201.403 61.3688 201.662 61.5452C201.921 61.7217 202.322 62.007 202.975 62.4912V59.1316C202.975 57.2847 202.979 55.772 202.982 55.772C202.99 55.772 208.505 55.7119 215.244 55.6406C221.982 55.5693 227.591 55.5092 227.925 55.5092V62.8928C227.925 66.9581 227.944 71.6578 227.962 73.3395C227.985 75.0212 227.996 76.4026 227.989 76.4101C227.985 76.4138 227.61 76.4776 227.156 76.549C226.702 76.6203 225.966 76.7479 225.524 76.8305C225.081 76.9131 224.372 77.0595 223.948 77.1533C223.524 77.2472 222.882 77.3973 222.522 77.4874C222.162 77.5775 221.502 77.7539 221.059 77.8815C220.616 78.0092 219.78 78.2682 219.202 78.4596C218.624 78.6548 217.84 78.9326 217.457 79.079C217.075 79.2254 216.399 79.5032 215.956 79.6946C215.514 79.8823 214.685 80.2689 214.118 80.5505C213.551 80.832 212.775 81.2374 212.392 81.4551C212.009 81.6728 211.447 82.0032 211.135 82.1984C210.828 82.3898 210.284 82.7389 209.935 82.9754C209.586 83.2156 208.974 83.6473 208.584 83.9439C208.194 84.2366 207.669 84.642 207.421 84.8447C207.173 85.0475 206.708 85.4416 206.389 85.7231C206.07 86.0009 205.267 86.7704 204.603 87.4348C203.943 88.0955 202.945 89.1353 202.386 89.7434C201.831 90.3515 201.197 91.0197 200.983 91.2261C200.769 91.4326 200.472 91.6878 200.33 91.7892C200.187 91.8905 199.973 92.0144 199.861 92.0595C199.741 92.1082 199.572 92.1458 199.459 92.1458C199.351 92.1458 199.197 92.1195 198.979 92.0332L198.942 91.6691C198.923 91.4513 198.908 88.3883 198.904 84.1878C198.904 79.6045 198.889 77.0294 198.829 76.823L191.1 76.8455C186.849 76.8605 181.751 76.8793 176.168 76.9131L176.138 80.3177C176.123 82.1871 176.093 88.0917 176.074 93.4408C176.055 98.7862 176.021 109.428 175.999 117.089C175.976 124.751 175.946 131.935 175.905 135.096L175.699 135.074C175.586 135.059 175.095 134.984 174.611 134.901C174.127 134.822 173.35 134.676 172.885 134.582C172.42 134.488 171.729 134.334 171.347 134.244C170.964 134.15 170.375 134 170.033 133.91C169.692 133.82 169.043 133.632 168.589 133.493C168.135 133.354 167.426 133.125 167.013 132.979C166.6 132.833 165.906 132.574 165.475 132.405C165.043 132.232 164.391 131.962 164.03 131.804C163.67 131.646 162.969 131.316 162.473 131.072C161.978 130.828 161.243 130.445 160.841 130.216C160.44 129.991 159.866 129.661 159.566 129.477C159.265 129.297 158.725 128.948 158.365 128.707C158.005 128.467 157.48 128.107 157.202 127.908C156.924 127.709 156.41 127.318 156.061 127.048C155.712 126.774 155.161 126.324 154.842 126.05C154.519 125.772 153.938 125.25 153.548 124.886C153.157 124.518 152.557 123.925 152.216 123.565C151.874 123.201 151.372 122.656 151.105 122.348C150.839 122.041 150.426 121.553 150.19 121.26C149.953 120.971 149.589 120.502 149.379 120.224C149.169 119.946 148.813 119.454 148.591 119.135C148.366 118.816 148.002 118.276 147.785 117.934C147.563 117.592 147.226 117.052 147.034 116.733C146.843 116.414 146.509 115.828 146.295 115.438C146.078 115.044 145.702 114.319 145.459 113.824C145.215 113.328 144.881 112.619 144.719 112.247C144.554 111.875 144.295 111.267 144.145 110.896C143.995 110.524 143.766 109.931 143.639 109.582C143.511 109.233 143.267 108.531 143.102 108.024C142.937 107.517 142.705 106.767 142.588 106.354C142.472 105.941 142.277 105.198 142.157 104.702C142.033 104.207 141.876 103.505 141.8 103.144C141.725 102.784 141.598 102.101 141.519 101.624C141.44 101.147 141.339 100.498 141.298 100.179C141.253 99.8597 141.185 99.2666 141.148 98.865C141.106 98.4633 141.054 97.8139 141.028 97.4198C141.001 96.9919 140.994 96.1811 141.005 95.3928C141.016 94.4543 141.046 93.8425 141.103 93.2531C141.148 92.7989 141.226 92.0707 141.279 91.639C141.331 91.2073 141.433 90.4528 141.504 89.9686C141.579 89.4844 141.703 88.7224 141.785 88.2794C141.868 87.8365 141.996 87.1946 142.067 86.853C142.142 86.5114 142.273 85.9296 142.363 85.558C142.453 85.1863 142.603 84.5932 142.701 84.2441C142.795 83.8951 142.994 83.2194 143.136 82.7427C143.282 82.2659 143.519 81.5415 143.665 81.1285C143.811 80.7156 144.085 79.9799 144.277 79.4957C144.468 79.0114 144.757 78.317 144.915 77.9566C145.072 77.5963 145.429 76.8418 145.702 76.2862C145.976 75.7269 146.385 74.9424 146.61 74.5407C146.839 74.1391 147.169 73.5647 147.353 73.2644C147.533 72.9641 147.871 72.4311 148.104 72.082C148.332 71.7292 148.696 71.1999 148.91 70.8996C149.12 70.5993 149.492 70.1 149.728 69.7922C149.968 69.4807 150.366 68.9852 150.614 68.6849C150.861 68.3846 151.266 67.9116 151.514 67.6338C151.762 67.356 152.403 66.6879 152.94 66.1511C153.48 65.6106 154.208 64.9199 154.557 64.6158C154.906 64.308 155.491 63.82 155.851 63.531C156.211 63.2419 156.677 62.8853 156.883 62.7389C157.089 62.5963 157.596 62.2547 158.009 61.9882C158.421 61.7217 159.13 61.2787 159.584 61.0085C160.038 60.7344 160.789 60.3028 161.254 60.0513C161.719 59.796 162.537 59.3718 163.074 59.1091C163.61 58.8463 164.338 58.5047 164.687 58.3508C165.036 58.1969 165.576 57.9679 165.888 57.8441C166.195 57.7202 166.653 57.54 166.901 57.4499C167.148 57.3561 167.621 57.1871 167.951 57.0708C168.281 56.9544 168.829 56.7742 169.17 56.6691C169.512 56.564 170.086 56.3989 170.446 56.2975C170.806 56.1999 171.474 56.031 171.928 55.9259C172.382 55.8245 173.065 55.6781 173.448 55.6068C173.83 55.5355 174.431 55.4341 174.78 55.3816C175.128 55.329 175.706 55.254 176.055 55.2127C176.404 55.1714 177.038 55.1113 177.462 55.0775Z" fill="#CDDC29"/>
</svg>
